<svg width="800" height="560" viewBox="0 0 800 560" fill="none" xmlns="http://www.w3.org/2000/svg">
  <rect width="800" height="560" rx="48" fill="#102A43"/>
  <rect x="32" y="32" width="736" height="496" rx="36" fill="#16324F"/>
  <path d="M104 420C178 389 222 338 263 286C318 216 361 148 445 148C522 148 567 213 603 267C629 307 655 344 696 365" stroke="#F59E0B" stroke-width="20" stroke-linecap="round"/>
  <path d="M215 427L563 173" stroke="#E0E7FF" stroke-width="12" stroke-linecap="round" stroke-dasharray="12 18"/>
  <circle cx="439" cy="152" r="18" fill="#F8FAFC"/>
  <circle cx="439" cy="152" r="9" fill="#F59E0B"/>
  <path d="M122 111H245" stroke="#7DD3FC" stroke-width="14" stroke-linecap="round"/>
  <path d="M122 151H302" stroke="#7DD3FC" stroke-width="14" stroke-linecap="round" opacity="0.65"/>
  <path d="M122 191H204" stroke="#7DD3FC" stroke-width="14" stroke-linecap="round" opacity="0.45"/>
  <path d="M522 411H658" stroke="#C4B5FD" stroke-width="14" stroke-linecap="round"/>
  <path d="M522 451H608" stroke="#C4B5FD" stroke-width="14" stroke-linecap="round" opacity="0.65"/>
  <circle cx="620" cy="229" r="64" fill="#1F4F7A"/>
  <path d="M620 194V264" stroke="#F8FAFC" stroke-width="16" stroke-linecap="round"/>
  <path d="M585 229H655" stroke="#F8FAFC" stroke-width="16" stroke-linecap="round"/>
</svg>
