<svg xmlns="http://www.w3.org/2000/svg" viewBox="0 0 480 360" fill="none">
  <defs>
    <linearGradient id="panel" x1="44" y1="36" x2="436" y2="324" gradientUnits="userSpaceOnUse">
      <stop stop-color="#FFF9F2"/>
      <stop offset="1" stop-color="#EEF6FF"/>
    </linearGradient>
  </defs>
  <rect width="480" height="360" rx="30" fill="url(#panel)"/>
  <rect x="30" y="36" width="420" height="288" rx="24" fill="#FFFFFF" fill-opacity=".78" stroke="#E2E8F0"/>
  <line x1="78" y1="278" x2="404" y2="278" stroke="#94A3B8" stroke-width="2"/>
  <line x1="106" y1="296" x2="106" y2="88" stroke="#94A3B8" stroke-width="2"/>
  <path d="M106 252C150 240 196 214 234 180C272 146 316 118 402 106" stroke="#1D4ED8" stroke-width="8" stroke-linecap="round"/>
  <line x1="148" y1="226" x2="310" y2="162" stroke="#0F766E" stroke-width="5" stroke-linecap="round"/>
  <line x1="208" y1="190" x2="344" y2="150" stroke="#D97706" stroke-width="5" stroke-linecap="round"/>
  <circle cx="230" cy="182" r="8" fill="#D97706"/>
  <circle cx="148" cy="226" r="7" fill="#0F766E"/>
  <circle cx="310" cy="162" r="7" fill="#0F766E"/>
  <rect x="56" y="56" width="116" height="36" rx="18" fill="#E0F2FE"/>
  <text x="80" y="79" fill="#0F172A" font-family="Arial, sans-serif" font-size="15" font-weight="700">Average rate</text>
  <rect x="182" y="56" width="88" height="36" rx="18" fill="#FEF3C7"/>
  <text x="210" y="79" fill="#0F172A" font-family="Arial, sans-serif" font-size="15" font-weight="700">Limit</text>
  <rect x="282" y="56" width="120" height="36" rx="18" fill="#EDE9FE"/>
  <text x="310" y="79" fill="#0F172A" font-family="Arial, sans-serif" font-size="15" font-weight="700">Derivative</text>
  <text x="318" y="144" fill="#D97706" font-family="Arial, sans-serif" font-size="16" font-weight="700">Tangent idea</text>
  <text x="126" y="216" fill="#0F766E" font-family="Arial, sans-serif" font-size="16" font-weight="700">Secant view</text>
  <text x="334" y="102" fill="#1D4ED8" font-family="Arial, sans-serif" font-size="16" font-weight="700">Curve</text>
  <rect x="58" y="302" width="366" height="18" rx="9" fill="#E2E8F0"/>
  <rect x="58" y="302" width="258" height="18" rx="9" fill="#D97706" fill-opacity=".8"/>
</svg>
